<?xml version="1.0" encoding="UTF-8"?>
<svg version="1.1" viewBox="0 0 2048 1637" width="559" height="447" xmlns="http://www.w3.org/2000/svg">
<path transform="translate(919,248)" d="m0 0h7l16 4 10 5 11 9 9 12 6 14 3 15v79l-1 16h72l-12-48-7-29-6-22-8-16-6-7v-2l-4-2-10-7-13-5-16-3-5-4-5-6v-2l5-1h10l14 3 12 5 11 7 11 9v2h2l9 12 7 15 9 30 8 31 8 30 3 9 148 1 17 3 13 5 11 7 12 11 9 13 5 12 6 26 17 83 12 59 13 62 10 47 12 60 8 39 3 17v25l-5 21-8 16-7 9-7 7-14 7-11 3-21 3-101 10-57 5-88 9-9 1h-20l-18-6-29-12-82-35-24-10-49-21-24-10-51-22-30-13-10-9-7-9-6-15-4-17-1-7v-14l4-23 9-35 7-25 8-31 14-50 8-30 19-71 10-36 6-18 8-15 8-10 13-10 9-4 8-2 42-1 1-8 2-40 3-40 4-20 7-14 7-9 10-10 14-8zm2 15-12 2-9 4-9 7-6 7-7 14-3 13-3 40-2 38v14h64l-2-29-7-63v-22l4-12 9 1 2 1-1 7-2 7v15l6 48 6 46 15 1 3-1 1-43v-51l-4-15-6-11-10-10-12-6z" fill="#180423"/>
<path transform="translate(1097,417)" d="m0 0h122l10 2 10 5 10 9 6 9 3 5 6 25 9 52 11 58 14 75 10 52 4 23 18 96 1 7v28l-2 10-4 10-6 10-9 6-6 2-15-1-9-3-12-3-29-8-30-8-9-4-6-6-4-57-2-31-4-51-4-59-4-54-3-45-3-43-4-57-2-19-3-8-6-4-8-1-8 4-3 6 1 29 2 33 2 41 3 45 4 79 2 23 4 78 2 44 3 48 4 16 6 9 8 7 14 6 20 5 5 3-3 2-11 2-58 6-51 5h-12l1-6 8-19 3-14 3-35 1-14 5-136 3-60 4-107 3-55v-21l-2-11-5-15-8-12-4-5v-2z" fill="#8666EC"/>
<path transform="translate(750,545)" d="m0 0 4 1 10 26 12 29 9 24 6 15 1 3 5 2h7l6-4 17-16 9-9 8-7 7-7 8-7 15-15 8-7 2-1h11l8 2 4 5 12 22 4 7v9l-6 38-8 54-3 19-7 45-4 25-4 31-5 35-2 12-4 1-16-6-27-11-28-11-24-10-28-11-27-11-15-7-8-7-5-8-5-15-1-6v-22l3-15 10-40 21-78 9-34 10-38z" fill="#8666EC"/>
<path transform="translate(1085,586)" d="m0 0h2v14l-3 70-3 43-6 131-2 24-3 17-4 12-6 11-10 11-10 7-14 4h-10l-13-4-28-11-33-13-32-13-6-3-2-2v-9l10-71 3-19 4-30 4-27 2-16 4-25 6-49h3l6 9 12 22 7 11 6 4 7 1 10-6 7-7 8-7 13-13 8-7 13-12 10-10 8-7 15-14 10-9z" fill="#8666EC"/>
<path transform="translate(1151,1072)" d="m0 0h16l20 3 17 5 19 10 14 11 8 8 11 16 8 16 4 12 2 11 1 11v45l-1 15-4 17-7 16-10 15-9 10-7 7-8 6-14 8-16 6-21 4h-32l-19-4-17-7-12-7-10-8-10-10-10-14-9-19-5-17-2-12v-58l5-21 5-12 8-15 10-13 10-10 15-10 17-8 18-5zm-6 40-11 4-10 9-6 9-5 16-2 18v12l3 31 4 21 7 19 8 14 7 9 11 8 8 3 12 1 12-3 8-6 8-11 6-16 3-14v-33l-4-24-5-20-8-20-8-11-4-5-10-7-12-4z" fill="#420860"/>
<path transform="translate(588,1072)" d="m0 0h10l24 3 19 5 19 9 12 9 8 10 5 12 1 4v32l-4 13-6 9-8 7-11 4h-14l-13-4-8-7-4-7-2-6v-18l-1-18-5-8-7-5-10-3h-13l-9 4-8 7-6 10-4 10-1 5-1 16 1 20 3 19 6 22 8 16 8 11 11 8 12 5 5 1h11l14-3 12-4 15-8 10-7 7-3 5 1 5 4 1 2-1 9-3 5 2 4 2 3v7l-7 10-11 11-11 9-16 9-14 5-18 3h-33l-20-4-18-8-12-8-12-11-8-9-9-14-7-16-5-17-2-19v-45l3-18 7-20 8-14 8-11 8-9 10-8 14-8 12-6 19-5z" fill="#410860"/>
<path transform="translate(1373,1074)" d="m0 0h176l12 2 6 7 1 7v78l-3 9-1 1h-10l-4-5-6-13-7-16-6-9-10-6-9-3-11-1-7 3-1 2v113l3 17 5 10 8 10 2 9-3 6 1 5 2 5-1 7-8 7-12 3-8 1h-35l-17-2-6-3-5-6-1-2v-6l2-4v-6l-2-5 1-8 4-6 7-9 4-12 1-8v-117l-4-4h-11l-13 4-9 6-5 6-8 17-6 15-4 5-5 1-6-2-3-5-1-18v-68l3-6 5-4z" fill="#420961"/>
<path transform="translate(801,1074)" d="m0 0h33l14 2 10 3 5 4 2 5v7l-2 3 1 7v11l-10 15-4 8-2 8v124l6 1h44l10-2 10-5 9-10 5-11 5-13 6-11 3-2 7 1 4 5 2 6v80l-3 7-5 5-6 1h-143l-18-2-7-4-4-5-1-5 3-8-1-7-2-6 3-7 10-14 3-9 1-6 1-16v-41l-1-48-3-10-13-19v-10l2-6-3-6v-6l4-6 6-4 11-3z" fill="#430960"/>
<path transform="translate(1064,423)" d="m0 0 7 1 8 7 7 8 6 12 2 11v14l-3 64-2 10-4 8-17 17-8 7-8 8-8 7-14 14-8 7-15 14-10 10-8 7-11 9-5 1-7-10-13-23-15-26-8-14-9-16-2-4 1-6 15-15 8-7 7-7 8-7 17-17 8-7 17-16 15-15 8-7 15-14 15-15 8-7z" fill="#8666EC"/>
<path transform="translate(798,420)" d="m0 0h5l6 9 24 46 12 22 15 29 9 17 4 8v8l-7 8-15 15-8 7-15 15-8 7-11 11-7 1-8-15-13-32-14-34-9-21v-8l9-35 7-26 8-16 8-10z" fill="#8666EC"/>
<path transform="translate(819,415)" d="m0 0h32l3 2-1 7-5 7-1 9 2 8 4 5 4 2h8l6-5 4-10-1-8-4-8v-7l1-1h56l35 1 3 2v9l-6 8-1 3v8l4 9 4 4 5 2h6l6-4 3-4 1-3v-11l-4-9-2-2v-11l1-1 58 1 2 1-2 4-8 8-8 7-27 27-11 9-2 2h-31l-37-2-40-3-26-2-5-3-12-21-13-23z" fill="#8666EC"/>
<path transform="translate(1270,1207)" d="m0 0h1v13l-1 15-4 17-7 16-10 15-9 10-7 7-8 6-14 8-16 6-21 4h-32l-19-4-17-7-12-7-10-8-10-10-10-14-9-19-5-17-2-12v-5h2l8 19 6 12 9 13 7 9 10 8 18 10 8 4 18 5 13 2h15l27-3 14-4 17-8 11-8 10-9 9-10 9-15 7-16 3-12z" fill="#D964A1"/>
<path transform="translate(482,1193)" d="m0 0h1l2 25 4 14 8 18 7 11 11 13 9 8 19 11 12 5 17 4 7 1h27l17-3 14-4 14-7 11-8 12-11 5-5 4 2 2 3v7l-7 10-11 11-11 9-16 9-14 5-18 3h-33l-20-4-18-8-12-8-12-11-8-9-9-14-7-16-5-17-2-19z" fill="#D964A0"/>
<path transform="translate(856,734)" d="m0 0 10 1 9 6 6 7 4 8 2 8v24l-4 13-7 11-8 6-6 2h-7l-9-3-7-6-6-10-4-15v-13l2-10 4-12 8-10 7-5z" fill="#170421"/>
<path transform="translate(958,1292)" d="m0 0h1v18l-3 7-5 5-6 1h-143l-18-2-7-4-4-5-1-5 4-12 4 2 3 2 16 2h150l7-4z" fill="#D863A1"/>
<path transform="translate(858,486)" d="m0 0 23 1 59 4 19 2 3 1-1 4-4 5-8 7-12 12-8 7-13 13-8 7-5 4-6 1-6-5-14-25-8-14-9-16-2-5z" fill="#8666EC"/>
<path transform="translate(874,618)" d="m0 0h12l9 5 6 7 5 12 1 3v18l-4 12-6 9-6 5-5 2h-13l-8-4-8-9-4-10-1-7v-12l3-12 6-10 8-7z" fill="#170421"/>
<path transform="translate(1134,415)" d="m0 0h82l16 3 7 3 10 7v2l3 1v3h2l7 15 6 25 6 36 3 16 3 17 5 25 3 17 5 24 5 30 6 30 4 21 5 30 5 25 4 22 4 19 3 17 5 27 2 21-1 14-2 13-6 12-2 3h-2v2l-10 7-5 2h-13l-50-14-21-6-15-4-11-4-5-5-1-3-3-53-4-55-2-29-2-35-4-50-4-59-6-89-3-38-1-14 2 2 2 13 2 21 5 79 3 37 4 62 3 37 4 60 3 34 4 66 1 11 5 5 9 4 23 6 17 5 19 5 21 6 15 1 9-4 4-3h2l2-5 5-9 3-9 1-7v-28l-5-29-10-52-7-38-9-50-10-52-20-106-6-36-6-25-8-13-7-7-10-6-6-2-7-1h-126l2 5-5-4v-3z" fill="#41085F"/>
<path transform="translate(1147,438)" d="m0 0 8 1 3 3-4-1h-9l-5 4h-2v15l4 58 3 56 2 38 3 60 4 66 4 64 2 50 3 25 4 10 8 9 16 8 26 7 8 4-1 4-10 2-47 5-40 3-41 4h-7l-2-1v-5l9-17 4-12 3-22 2-27 4-105 4-81 4-121 3-60v-19l-3-16-1-7 2 3 4 12 1 8v21l-3 55-2 49-2 58-4 85-4 111-3 41-3 18-6 16-5 13 40-4 23-2 31-3 35-4 5-2-8-3-19-5-14-7-8-8-5-10-3-13-4-66-3-63-2-41-2-23-5-98-2-26-3-62-2-33v-8l3-6 6-4z" fill="#41085F"/>
<path transform="translate(750,541)" d="m0 0 4 1 3 4 11 28 10 24 8 21 4 10 3 8 4 5 5 1 6-3 11-10 4-5 8-7 6-5 20-20 16-15 9-8 2-1h8l12 3 4 4 8 14 3 5 6 12v11l-6 37-4 28-2 9-3 28-3 16-3 25-6 32-1 13-3 21-4 26-3 22-2 4-9-1-21-8-15-6-12-5-10-4-12-5-8-3-25-10-10-3-8-4-11-4-13-6-10-4-11-6-8-8-7-19-2-16v-10l3-17 7-29 7-25 7-26 2-9 2-5 2-8 3-13 5-16 12-52 3-8 2-6zm0 4-4 13-13 49-7 27-15 56-9 34-5 21-1 7v22l4 16 6 12 7 7 14 7 60 24 18 7 12 5 30 12 17 7 16 6 4-1 3-21 7-47 4-31 4-24 6-35 5-37 8-52 2-12v-9l-13-24-6-9-3-2-6-1h-11l-6 4-25 25-8 7-7 7-8 7-12 12-8 7-6 4h-7l-5-2-2-5-10-26-14-36-6-14-6-16z" fill="#41085F"/>
<path transform="translate(1146,1091)" d="m0 0h10l12 4 10 7 7 8 7 12 8 21 4 17 3 25-1 4h-1l-7-30-8-20-8-11-5-5-8-6-12-4h-12l-11 4-10 9-6 11-4 13h-1v-17l5-17 6-11 9-9 8-4z" fill="#D864A1"/>
<path transform="translate(1421,1294)" d="m0 0 7 5 16 2 23 1 23-1 12-3 5-3 4 10-1 7-8 7-12 3-8 1h-35l-17-2-6-3-5-6-1-2v-6l2-4z" fill="#D963A0"/>
<path transform="translate(816,413)" d="m0 0h37l4 2 1 5-2 6-4 4-2 4v9l4 8 3 2h10l2-4 4-9-1-7-5-8v-8l2-3h75l22 1 2 3v10l-4 6-4 10 3 9 5 6 2 1h7l6-4 2-5v-11l-2-7h-2l-3-7 1-8 2-3 56 1 8 1-1 4-7 8-4 4h-2l-1 3-8 7-30 30-9 6h-23l-86-6-12-1h-8l-9-2-13-23-14-25-3-8zm3 2 1 7 10 18 13 23 4 5 3 1 37 3 66 4h31l11-10 8-7 27-27 8-7 4-4v-2l-2-1-58-1-1 1v11l4 5 2 6v11l-3 6-5 4-2 1-9-1-5-3-4-8-1-3v-8l5-9 2-2v-9l-3-2-35-1h-56l-1 1v7l4 8 1 8-4 10-6 5h-8l-6-4-3-5-1-10 2-7 5-7v-5l-3-2z" fill="#41085F"/>
<path transform="translate(1420,1104)" d="m0 0h10l5 5 1 3v17l-5-4h-11l-13 4-9 6-5 6-8 17-6 15-4 5-5 1-6-2-3-5-1-18v-32h1l1 30 3 5h9l3-1 2-6 5-12 6-14 6-8 7-6 11-5z" fill="#D963A1"/>
<path transform="translate(1499,1104)" d="m0 0h11l10 3 9 5 6 7 8 15 8 19 4 4 10-1 2-8h1v20l-3 9-1 1h-10l-4-5-6-13-7-16-6-9-10-6-9-3-11-1-8 3-1-5v-11l3-5z" fill="#DA65A0"/>
<path transform="translate(935,634)" d="m0 0 4 2 12 21-1 2-10-17-4-4-8 63-3 16-4 33-4 26-3 23-7 49-4 27v9l4 3 25 10 33 13 35 14 11 4 5 1h10l14-4 12-9 9-11 6-13 4-17 2-15 3-59 5-105 2-26h1v15l-2 33-4 104-2 40-3 19-3 12-8 16-11 12-7 6-10 4-10 2h-8l-22-8-24-10-18-7-14-5-12-5-25-10-2-2 1-13 6-39 8-58 3-23 3-20 4-29 3-16 6-48z" fill="#41085F"/>
<path transform="translate(684,1141)" d="m0 0 2 4v11l-4 13-6 9-8 7-11 4h-14l-13-4-8-7-4-7-2-6v-11l1-6 2 3 2 6 4 2v2l4 2 14 5h15l8-3 9-7 6-8z" fill="#DA64A0"/>
<path transform="translate(582,1091)" d="m0 0h10l12 4 9 8 5 10v15l-1 6h-1l-3-9-5-5-5-4-10-3h-13l-9 4-8 7-6 10-4 10-2-3 1-13 6-17 7-11 6-5z" fill="#D963A0"/>
<path transform="translate(798,417)" d="m0 0h6l4 5 10 18 8 16 8 14 10 21 12 21 8 16 6 11 5 8 2 6v6l-7 9-5 5-9 8-5 5-15 14-11 11-8 7-10 9h-5l-5-6-14-33-9-23-4-8-6-16-7-16-1-4v-8l7-28 5-17 5-19 8-16 9-10zm0 3-9 7-8 10-7 15-11 41-5 20v8l10 23 13 32 11 27 8 17 2 3 7-1 17-17 8-7 15-15 8-7 15-15 1-2v-8l-6-12-10-19-15-29-12-22-17-33-8-14-2-2z" fill="#41085F"/>
<path transform="translate(1066,420)" d="m0 0 5 2 8 6 8 9 7 14 2 9v17l-2 49-2 20-4 10-3 2 2-6 2-5 1-7 3-64v-14l-3-14-8-13-9-9-4-2h-5l-6 6h-2l-1 3-8 7-18 18-8 7-15 14-15 15-8 7-17 16-14 14-8 7-7 7-8 7-8 8-1 6 8 15 9 16 10 17-1 2-6-9-11-19-8-13-4-8v-6l4-6 26-24 4-2v-2l8-7 6-5 7-8 3-3h2v-2l8-7 3-1v-2l8-7 8-8h2l2-4 10-9 8-7 15-15 8-7 7-7z" fill="#41085F"/>
<path transform="translate(855,484)" d="m0 0h15l62 4 32 3 4 4-20 20-8 7-22 22-8 7-6 5-2 1h-6l-6-4-8-16-8-13-15-28-4-8zm3 2 1 5 7 14 10 18 14 24 4 5 3 2 6-1 8-7 13-12 11-11 8-7 12-12 5-4 2-3v-3l-11-2-52-4-32-2z" fill="#41085F"/>
<path transform="translate(854,759)" d="m0 0h9l7 8 1 5v7l-3 9-6 6h-8l-5-4-3-6v-14l4-7z" fill="#8666EC"/>
<path transform="translate(878,639)" d="m0 0 7 1 5 6 1 3v11l-4 6-5 4h-7l-5-5-3-7v-7l4-8 4-3z" fill="#8666EC"/>
<path transform="translate(856,734)" d="m0 0 10 1 9 6 6 7 4 8 2 8v24l-4 13-7 11-8 6-6 2h-7l-9-3-7-6-6-10-4-15v-13l2-10 4-12 8-10 7-5zm0 3-10 5-8 10-4 13-2 8v14l5 16 4 6h2l2 4 5 3 4 1h10l7-4 8-9 4-8 2-9v-23l-4-13-9-10-8-4z" fill="#41085F"/>
<path transform="translate(874,618)" d="m0 0h12l9 5 6 7 5 12 1 3v18l-4 12-6 9-6 5-5 2h-13l-8-4-8-9-4-10-1-7v-12l3-12 6-10 8-7zm1 2-9 5-7 9-4 13v16l3 11 7 9 8 5 4 1h8l8-4 7-8 4-9 2-9v-10l-3-10-5-10-8-7-6-2z" fill="#41085F"/>
<path transform="translate(861,1099)" d="m0 0 3 6v11l-10 15-4 8-2 8h-1v-14l3-15 7-14z" fill="#D863A1"/>
<path transform="translate(856,755)" d="m0 0 7 1 3 1 5 6 2 5v16l-6 10-4 3h-10l-4-2-4-6-2-8v-9l3-9 4-5zm-2 4-7 8-1 3v14l5 8 3 2h8l7-8 2-7v-7l-2-7-6-6z" fill="#41085F"/>
<path transform="translate(775,1098)" d="m0 0 4 4 6 9 4 14 1 8v12l-2-4-3-8-10-14-2-3v-10l2-6z" fill="#D665A4"/>
<path transform="translate(875,637)" d="m0 0h10l5 5 3 4 1 4v8l-3 7-6 7-2 1h-9l-5-5-4-8v-11l5-9zm3 2-6 3-4 6-1 3v7l3 7 5 5h7l7-6 2-4v-11l-3-6-3-3z" fill="#41085F"/>
<path transform="translate(1086,583)" d="m0 0h2v25l-2 48-1 14h-1v-21l2-49 1-14-8 7-8 8-2-1z" fill="#41085F"/>
<path transform="translate(684,749)" d="m0 0h1v39h-1l-2-12v-14z" fill="#5F237E"/>
<path transform="translate(919,248)" d="m0 0h7l13 3-1 2-6-1-18-1-1-2z" fill="#50156C"/>
<path transform="translate(965,248)" d="m0 0h10l11 2v1h-19z" fill="#541D7B"/>
</svg>
